name C:\Users\u0101727\Documents\MyRepositories\upper-imu-dc\Results\main_tracking\Case_41\kinematics.mot
datacolumns 10
datarows 42
range 3.50000000 3.91000000
endheader 
time	clav_prot	clav_elev	scapula_abduction	scapula_elevation	scapula_upward_rot	scapula_winging	plane_elv	shoulder_elv	axial_rot	
          3.50000000	        -44.43359074	          9.02890383	          0.87366717	         -1.63603280	         84.22328462	        -11.79003441	         37.79302046	         87.72065252	         -7.43264730	
          3.51000000	        -44.43295163	          9.03276946	          0.86671205	         -1.63452438	         84.21398981	        -11.79226215	         37.83721419	         87.69083909	         -7.39395057	
          3.52000000	        -44.43157580	          9.03592179	          0.86030745	         -1.63358082	         84.20354486	        -11.79403434	         37.87917164	         87.65994511	         -7.35521342	
          3.53000000	        -44.42949535	          9.03816669	          0.85447135	         -1.63333225	         84.19198325	        -11.79531665	         37.91853996	         87.62805684	         -7.31630098	
          3.54000000	        -44.42674704	          9.03933065	          0.84923093	         -1.63389153	         84.17936743	        -11.79607783	         37.95505225	         87.59528320	         -7.27699418	
          3.55000000	        -44.42337446	          9.03927072	          0.84461520	         -1.63534797	         84.16578718	        -11.79629389	         37.98853114	         87.56175472	         -7.23700640	
          3.56000000	        -44.41942957	          9.03788302	          0.84064773	         -1.63776206	         84.15135627	        -11.79595181	         38.01888759	         87.52762092	         -7.19601689	
          3.57000000	        -44.41497258	          9.03510961	          0.83734121	         -1.64116149	         84.13620720	        -11.79505215	         38.04611478	         87.49304581	         -7.15371718	
          3.58000000	        -44.41006958	          9.03094340	          0.83469499	         -1.64553853	         84.12048443	        -11.79360994	         38.07027757	         87.45820174	         -7.10986415	
          3.59000000	        -44.40478796	          9.02543035	          0.83269622	         -1.65084910	         84.10433616	        -11.79165373	         38.09149908	         87.42326168	         -7.06433259	
          3.60000000	        -44.39919020	          9.01866849	          0.83132350	         -1.65701411	         84.08790512	        -11.78922303	         38.10994675	         87.38839065	         -7.01716046	
          3.61000000	        -44.39332765	          9.01080353	          0.83055105	         -1.66392312	         84.07131864	        -11.78636498	         38.12582092	         87.35373685	         -6.96858188	
          3.62000000	        -44.38723566	          9.00202188	          0.83035097	         -1.67143993	         84.05467854	        -11.78313128	         38.13934800	         87.31942325	         -6.91904439	
          3.63000000	        -44.38093072	          8.99254236	          0.83069278	         -1.67940912	         84.03805154	        -11.77957600	         38.15077909	         87.28553993	         -6.86920931	
          3.64000000	        -44.37440969	          8.98260754	          0.83154055	         -1.68766287	         84.02146094	        -11.77575448	         38.16039324	         87.25213769	         -6.81993581	
          3.65000000	        -44.36765027	          8.97247505	          0.83284932	         -1.69602770	         84.00488036	        -11.77172250	         38.16850408	         87.21922307	         -6.77225075	
          3.66000000	        -44.36061157	          8.96240894	          0.83456328	         -1.70433080	         83.98822978	        -11.76753525	         38.17546754	         87.18675525	         -6.72730728	
          3.67000000	        -44.35323366	          8.95267146	          0.83661749	         -1.71240577	         83.97137423	        -11.76324510	         38.18168866	         87.15464514	         -6.68633523	
          3.68000000	        -44.34543534	          8.94351519	          0.83894439	         -1.72009754	         83.95412484	        -11.75889795	         38.18762576	         87.12275681	         -6.65058647	
          3.69000000	        -44.33711002	          8.93517564	          0.84148456	         -1.72726675	         83.93624140	        -11.75452815	         38.19379117	         87.09091152	         -6.62127778	
          3.70000000	        -44.32812006	          8.92786425	          0.84420036	         -1.73379361	         83.91743538	        -11.75015245	         38.20074827	         87.05889433	         -6.59953439	
          3.71000000	        -44.31829013	          8.92176172	          0.84709066	         -1.73958150	         83.89737241	        -11.74576350	         38.20910514	         87.02646374	         -6.58633689	
          3.72000000	        -44.30740054	          8.91701239	          0.85020524	         -1.74455993	         83.87567444	        -11.74132361	         38.21950476	         86.99336334	         -6.58247398	
          3.73000000	        -44.29518147	          8.91372088	          0.85365743	         -1.74868590	         83.85192247	        -11.73675974	         38.23261251	         86.95933418	         -6.58850263	
          3.74000000	        -44.28130927	          8.91195154	          0.85763412	         -1.75194340	         83.82566123	        -11.73196007	         38.24910140	         86.92412611	         -6.60471689	
          3.75000000	        -44.26540487	          8.91173003	          0.86240373	         -1.75434109	         83.79640672	        -11.72677218	         38.26963607	         86.88750699	         -6.63112659	
          3.76000000	        -44.24703390	          8.91304541	          0.86832344	         -1.75590959	         83.76365661	        -11.72100198	         38.29485600	         86.84926956	         -6.66744739	
          3.77000000	        -44.22570831	          8.91585078	          0.87584643	         -1.75669946	         83.72690346	        -11.71441281	         38.32535909	         86.80923577	         -6.71310445	
          3.78000000	        -44.20089001	          8.92006160	          0.88552712	         -1.75678069	         83.68564927	        -11.70672522	         38.36168798	         86.76725861	         -6.76725106	
          3.79000000	        -44.17199888	          8.92555178	          0.89801992	         -1.75624422	         83.63942020	        -11.69761896	         38.40432278	         86.72322143	         -6.82880291	
          3.80000000	        -44.13842702	          8.93214885	          0.91406593	         -1.75520469	         83.58777934	        -11.68673941	         38.45368361	         86.67703472	         -6.89648659	
          3.81000000	        -44.09955999	          8.93963062	          0.93446544	         -1.75380332	         83.53033667	        -11.67370932	         38.51014400	         86.62863110	         -6.96889970	
          3.82000000	        -44.05480297	          8.94772588	          0.96003829	         -1.75220879	         83.46675561	        -11.65814552	         38.57405238	         86.57795931	         -7.04457840	
          3.83000000	        -44.00360843	          8.95612126	          0.99157814	         -1.75061449	         83.39675664	        -11.63967860	         38.64575694	         86.52497827	         -7.12206818	
          3.84000000	        -43.94550149	          8.96447412	          1.02980735	         -1.74923180	         83.32011880	        -11.61797286	         38.72562851	         86.46965142	         -7.19999411	
          3.85000000	        -43.88009998	          8.97243022	          1.07533844	         -1.74827990	         83.23667939	        -11.59274417	         38.81407764	         86.41194176	         -7.27712625	
          3.86000000	        -43.80712717	          8.97964338	          1.12864570	         -1.74797388	         83.14633153	        -11.56377362	         38.91156417	         86.35180793	         -7.35243556	
          3.87000000	        -43.72641638	          8.98579512	          1.19004836	         -1.74851257	         83.04901874	        -11.53091621	         39.01859917	         86.28920213	         -7.42513464	
          3.88000000	        -43.63790746	          8.99061240	          1.25970534	         -1.75006736	         82.94472612	        -11.49410401	         39.13574033	         86.22406986	         -7.49469951	
          3.89000000	        -43.54163635	          8.99388208	          1.33762014	         -1.75277304	         82.83346850	        -11.45334439	         39.26358172	         86.15635127	         -7.56087150	
          3.90000000	        -43.43771968	          8.99546100	          1.42365387	         -1.75672132	         82.71527681	        -11.40871404	         39.40273997	         86.08598295	         -7.62364145	
          3.91000000	        -43.32633654	          8.99528135	          1.51754384	         -1.76195733	         82.59018391	        -11.36035012	         39.55383832	         86.01289881	         -7.68322074	
